<?xml version="1.0" encoding="UTF-8"?>
<svg xmlns="http://www.w3.org/2000/svg" xmlns:xlink="http://www.w3.org/1999/xlink" width="25px" height="17px" viewBox="0 0 25 17" version="1.1">
<g id="surface1">
<path style="fill:none;stroke-width:21.279;stroke-linecap:butt;stroke-linejoin:miter;stroke:black;stroke-opacity:1;stroke-miterlimit:4;" d="M 62.24 10.63511 C 33.76 10.63511 10.64 32.86489 10.64 60.292279 C 10.64 87.719669 33.76 109.949449 62.24 109.949449 C 129.64 113.507812 122.56 10.63511 193.48 10.63511 C 222 10.63511 245.08 32.86489 245.08 60.292279 C 245.08 87.719669 222 109.949449 193.48 109.949449 C 126.08 113.507812 133.2 10.63511 62.24 10.63511 " transform="matrix(0.0976562,0,0,0.0977011,0,0)"/>
<path style="fill-rule:nonzero;fill:black;fill-opacity:1;stroke-width:7.093;stroke-linecap:butt;stroke-linejoin:miter;stroke:black;stroke-opacity:1;stroke-miterlimit:4;" d="M 187.84 72.606618 L 187.84 60.971967 L 176.32 60.971967 L 176.32 56.09421 L 187.84 56.09421 L 187.84 44.579504 L 192.76 44.579504 L 192.76 56.09421 L 204.28 56.09421 L 204.28 60.971967 L 192.76 60.971967 L 192.76 72.606618 Z M 187.84 72.606618 " transform="matrix(0.0976562,0,0,0.0977011,0,0)"/>
<path style="fill-rule:nonzero;fill:black;fill-opacity:1;stroke-width:0.355;stroke-linecap:butt;stroke-linejoin:miter;stroke:black;stroke-opacity:1;stroke-miterlimit:4;" d="M 242.28 10.395221 L 242.28 5.597426 L 240.44 5.597426 L 240.44 4.757812 L 245.04 4.757812 L 245.04 5.597426 L 243.2 5.597426 L 243.2 10.395221 Z M 245.68 10.395221 L 245.68 4.757812 L 247.08 4.757812 L 248.48 9.235754 L 249.88 4.757812 L 251.24 4.757812 L 251.24 10.395221 L 250.36 10.395221 L 250.36 5.637408 L 248.92 10.395221 L 248.04 10.395221 L 246.56 5.597426 L 246.56 10.395221 Z M 245.68 10.395221 " transform="matrix(0.0976562,0,0,0.0977011,0,0)"/>
<path style="fill-rule:nonzero;fill:black;fill-opacity:1;stroke-width:0.851;stroke-linecap:butt;stroke-linejoin:miter;stroke:black;stroke-opacity:1;stroke-miterlimit:4;" d="M 30.6 172.52068 L 28.28 164.524357 L 13.64 164.524357 L 11.28 172.52068 L 3.44 172.52068 L 15.84 131.97932 L 26.88 131.97932 L 39.32 172.52068 Z M 21.08 139.415901 L 15.56 158.287224 L 26.52 158.287224 Z M 64.84 172.52068 L 58.92 159.486673 C 58.36 158.247243 57.6 157.327665 56.6 156.68796 C 55.6 156.088235 54.44 155.768382 53.08 155.768382 L 51.56 155.768382 L 51.56 172.560662 L 43.68 172.560662 L 43.68 131.97932 L 55.92 131.97932 C 58.2 131.97932 60.32 132.179228 62.2 132.579044 C 64.08 132.938879 65.68 133.578585 67 134.45818 C 68.32 135.337776 69.36 136.537224 70.08 137.936581 C 70.8 139.375919 71.16 141.13511 71.16 143.174173 C 71.16 144.693474 70.92 146.012868 70.48 147.172335 C 70.04 148.331801 69.4 149.331342 68.6 150.170956 C 67.76 151.01057 66.8 151.690257 65.68 152.210018 C 64.56 152.729779 63.32 153.089614 62 153.289522 C 63.04 153.48943 63.96 154.049173 64.84 154.96875 C 65.68 155.888327 66.52 157.247702 67.4 158.966912 L 74.08 172.560662 Z M 62.88 143.933824 C 62.88 141.934743 62.2 140.495404 60.92 139.65579 C 59.6 138.776195 57.64 138.336397 55.04 138.336397 L 51.56 138.336397 L 51.56 149.77114 L 54.76 149.77114 C 56 149.77114 57.08 149.651195 58.08 149.411305 C 59.08 149.171415 59.92 148.811581 60.64 148.29182 C 61.32 147.81204 61.88 147.212316 62.28 146.452665 C 62.68 145.732996 62.84 144.893382 62.84 143.933824 Z M 110.2 151.730239 C 110.2 154.888787 109.8 157.727482 108.96 160.326287 C 108.16 162.88511 106.92 165.044118 105.24 166.883272 C 103.52 168.682445 101.36 170.081801 98.68 171.081342 C 96.04 172.080882 92.84 172.560662 89.16 172.560662 L 78.48 172.560662 L 78.48 131.97932 L 90.92 131.97932 C 94.12 131.97932 96.96 132.379136 99.36 133.138787 C 101.76 133.938419 103.76 135.137868 105.36 136.737132 C 106.96 138.336397 108.16 140.415441 108.96 142.894301 C 109.8 145.373162 110.2 148.331801 110.2 151.770221 Z M 101.72 152.25 C 101.72 150.051011 101.52 148.091912 101.16 146.372702 C 100.8 144.653493 100.2 143.214154 99.32 142.014706 C 98.44 140.815257 97.28 139.935662 95.84 139.295956 C 94.36 138.696232 92.56 138.376379 90.4 138.376379 L 86.4 138.376379 L 86.4 166.163603 L 89.88 166.163603 C 93.72 166.163603 96.68 165.044118 98.68 162.805147 C 100.72 160.566176 101.72 157.047794 101.72 152.25 Z M 145.32 157.607537 C 145.32 160.16636 144.96 162.445312 144.24 164.404412 C 143.52 166.363511 142.48 168.002757 141.16 169.282169 C 139.8 170.601562 138.16 171.601103 136.24 172.240809 C 134.32 172.920496 132.16 173.240349 129.76 173.240349 C 127.08 173.240349 124.76 172.920496 122.84 172.240809 C 120.88 171.601103 119.32 170.641544 118.12 169.402114 C 116.96 168.162684 116.08 166.643382 115.52 164.84421 C 115 163.085018 114.72 161.085938 114.72 158.846967 L 114.72 131.939338 L 122.64 131.939338 L 122.64 158.407169 C 122.64 159.766544 122.76 160.965993 123 162.045496 C 123.24 163.085018 123.68 163.964614 124.28 164.724265 C 124.88 165.443934 125.68 166.003676 126.6 166.363511 C 127.52 166.723346 128.64 166.923254 130.04 166.923254 C 131.36 166.923254 132.44 166.763327 133.36 166.443474 C 134.24 166.123621 135 165.60386 135.6 164.884191 C 136.2 164.204504 136.64 163.284926 136.96 162.165441 C 137.24 161.045956 137.4 159.686581 137.4 158.087316 L 137.4 131.939338 L 145.32 131.939338 Z M 153 138.216452 L 153 131.97932 L 179.52 131.97932 L 179.52 138.216452 L 170.24 138.216452 L 170.24 166.243566 L 179.52 166.243566 L 179.52 172.52068 L 153 172.52068 L 153 166.243566 L 162.24 166.243566 L 162.24 138.216452 Z M 208.16 172.52068 L 196.92 148.331801 L 194.6 143.134191 L 194.6 172.52068 L 187.4 172.52068 L 187.4 131.97932 L 197.08 131.97932 L 208.56 156.328125 L 210.6 161.085938 L 210.6 131.97932 L 217.76 131.97932 L 217.76 172.560662 Z M 255.56 152.090074 C 255.56 155.768382 255.12 158.92693 254.24 161.605699 C 253.36 164.284467 252.12 166.483456 250.56 168.202665 C 249.04 169.921875 247.2 171.201287 245.12 172.000919 C 243.04 172.840533 240.8 173.240349 238.44 173.240349 C 232.92 173.240349 228.76 171.481158 225.96 167.922794 C 223.2 164.36443 221.8 159.206801 221.8 152.449908 C 221.8 148.771599 222.24 145.613051 223.12 142.934283 C 224 140.255515 225.24 138.056526 226.8 136.337316 C 228.32 134.618107 230.16 133.338695 232.24 132.539062 C 234.32 131.699449 236.56 131.299632 238.92 131.299632 C 244.44 131.299632 248.6 133.058824 251.4 136.617188 C 254.16 140.13557 255.56 145.293199 255.56 152.090074 Z M 247.2 152.449908 C 247.2 147.652114 246.56 144.09375 245.2 141.734835 C 243.88 139.375919 241.72 138.176471 238.68 138.176471 C 237.16 138.176471 235.84 138.496324 234.8 139.096048 C 233.72 139.695772 232.84 140.615349 232.12 141.774816 C 231.44 142.974265 230.92 144.413603 230.6 146.132812 C 230.28 147.852022 230.12 149.851103 230.12 152.090074 C 230.12 156.887868 230.8 160.486213 232.12 162.805147 C 233.48 165.164062 235.64 166.363511 238.68 166.363511 C 240.2 166.363511 241.48 166.043658 242.56 165.443934 C 243.64 164.84421 244.52 163.924632 245.2 162.765165 C 245.92 161.565717 246.4 160.126379 246.72 158.407169 C 247.04 156.68796 247.2 154.688879 247.2 152.449908 Z M 247.2 152.449908 " transform="matrix(0.0976562,0,0,0.0977011,0,0)"/>
<path style="fill-rule:nonzero;fill:black;fill-opacity:1;stroke-width:10.011;stroke-linecap:butt;stroke-linejoin:miter;stroke:black;stroke-opacity:1;stroke-miterlimit:4;" d="M 49.16 60.572151 L 49.16 56.613971 L 78.72 56.613971 L 78.72 60.572151 Z M 49.16 60.572151 " transform="matrix(0.0976562,0,0,0.0977011,0,0)"/>
</g>
</svg>
